<?xml version="1.0" standalone="no"?>
<!DOCTYPE svg PUBLIC "-//W3C//DTD SVG 20010904//EN"
 "http://www.w3.org/TR/2001/REC-SVG-20010904/DTD/svg10.dtd">
<svg version="1.0" xmlns="http://www.w3.org/2000/svg"
 width="250.000000pt" height="250.000000pt" viewBox="0 0 250.000000 250.000000"
 preserveAspectRatio="xMidYMid meet">
<metadata>
Created by potrace 1.11, written by Peter Selinger 2001-2013
</metadata>
<g transform="translate(0.000000,250.000000) scale(0.100000,-0.100000)"
fill="#000000" stroke="none">
<path d="M2 1418 l3 -773 568 -3 c381 -1 567 -6 567 -12 0 -55 -105 -155 -182
-176 -5 -1 -10 -3 -13 -4 -6 -3 -5 -3 -95 -23 -41 -10 -102 -21 -135 -25 -59
-7 -60 -8 -61 -39 -1 -17 2 -37 6 -42 4 -8 184 -10 596 -9 l589 3 2 38 c0 20
-2 39 -5 41 -4 2 -36 7 -72 11 -86 10 -92 11 -110 17 -8 3 -44 14 -80 24 -89
25 -157 68 -191 123 -16 25 -29 51 -29 58 0 10 111 13 568 15 l567 3 3 773 2
772 -1250 0 -1250 0 2 -772z"/>
</g>
</svg>
